Coordinates
version=1
nRows=11
nColumns=63
inDegrees=yes

Units are S.I. units (second, meters, Newtons, ...)
If the header above contains a line with 'inDegrees', this indicates whether rotational values are in degrees (yes) or radians (no).

endheader
time	pelvis_tilt	pelvis_list	pelvis_rotation	pelvis_tx	pelvis_ty	pelvis_tz	hip_flexion_r	hip_adduction_r	hip_rotation_r	knee_angle_r	knee_angle_r_beta	ankle_angle_r	subtalar_angle_r	mtp_angle_r	hip_flexion_l	hip_adduction_l	hip_rotation_l	knee_angle_l	knee_angle_l_beta	ankle_angle_l	subtalar_angle_l	mtp_angle_l	L5_S1_Flex_Ext	L5_S1_Lat_Bending	L5_S1_axial_rotation	L4_L5_Flex_Ext	L4_L5_Lat_Bending	L4_L5_axial_rotation	L3_L4_Flex_Ext	L3_L4_Lat_Bending	L3_L4_axial_rotation	L2_L3_Flex_Ext	L2_L3_Lat_Bending	L2_L3_axial_rotation	L1_L2_Flex_Ext	L1_L2_Lat_Bending	L1_L2_axial_rotation	L1_T12_Flex_Ext	L1_T12_Lat_Bending	L1_T12_axial_rotation	Abs_r3	Abs_r2	Abs_r1	Abs_t1	Abs_t2	neck_flexion	neck_bending	neck_rotation	arm_flex_r	arm_add_r	arm_rot_r	elbow_flex_r	pro_sup_r	wrist_flex_r	wrist_dev_r	arm_flex_l	arm_add_l	arm_rot_l	elbow_flex_l	pro_sup_l	wrist_flex_l	wrist_dev_l
0.000000	0.095143	-3.783381	88.567045	0.144001	0.834135	0.471370	0.683056	0.525473	7.016606	3.836390	0.066958	24.013568	-5.405866	0.000000	1.727401	-0.233037	14.034618	4.958458	0.086541	17.792075	-16.007880	0.000000	-0.031063	0.406954	0.638377	-0.057687	0.541249	0.678276	-0.051033	0.989469	0.678276	-0.035502	0.989469	0.558580	-0.028845	0.829862	0.518682	-0.017749	0.630373	0.478783	-0.221880	4.603551	3.550463	0.000000	0.000000	27.926772	2.646655	7.249862	9.136366	-13.932174	106.409812	13.258879	4.889964	-2.530154	-12.446305	12.062955	-7.246779	127.516987	10.603397	4.340071	-6.399488	-8.563162
0.016667	-0.370008	-3.998429	88.567702	0.143667	0.833711	0.471327	0.678049	-0.011677	7.141512	3.420734	0.059703	24.108622	-5.252593	0.000000	1.885559	0.273097	14.479772	4.837903	0.084437	17.284373	-15.730450	0.000000	-0.011721	0.366101	0.522852	-0.021768	0.486914	0.555530	-0.019257	0.890138	0.555530	-0.013396	0.890138	0.457495	-0.010884	0.746553	0.424817	-0.006698	0.567090	0.392139	-0.083725	4.141406	2.907945	0.000000	0.000000	27.968078	3.413006	8.999218	9.573380	-13.707282	107.679801	12.883261	4.724239	-1.931268	-11.869300	11.870796	-7.020995	134.980098	9.245019	4.012620	-6.995679	-8.283532
0.033333	-0.715800	-4.168470	88.560472	0.143301	0.833383	0.471258	0.712091	-0.417732	7.186153	3.155319	0.055071	24.200392	-5.124579	0.000000	2.006745	0.659436	14.872540	4.747874	0.082866	16.892201	-15.545198	0.000000	0.004054	0.339183	0.439398	0.007529	0.451113	0.466861	0.006661	0.824689	0.466861	0.004634	0.824689	0.384473	0.003765	0.691662	0.357011	0.002317	0.525394	0.329549	0.028959	3.836905	2.443801	0.000000	0.000000	28.002002	3.942305	10.377199	9.825463	-13.533789	109.614460	12.334242	4.524482	-1.601662	-11.393561	11.736542	-6.800629	140.878698	8.156944	3.741460	-7.481676	-8.097672
0.050000	-0.953271	-4.298152	88.546842	0.142909	0.833142	0.471169	0.780651	-0.704518	7.161695	3.023407	0.052768	24.286808	-5.022529	0.000000	2.095273	0.936717	15.215264	4.685591	0.081779	16.603806	-15.440853	0.000000	0.016581	0.324831	0.384544	0.030792	0.432026	0.408578	0.027240	0.789795	0.408578	0.018950	0.789795	0.336476	0.015397	0.662396	0.312442	0.009474	0.503164	0.288408	0.118434	3.674558	2.138721	0.000000	0.000000	28.029253	4.259995	11.421140	9.913687	-13.408084	112.108378	11.640041	4.297228	-1.512409	-11.013244	11.653909	-6.586064	145.371432	7.311350	3.521744	-7.867916	-7.995578
0.066667	-1.093458	-4.392120	88.528299	0.142496	0.832981	0.471063	0.879196	-0.883859	7.079305	3.008261	0.052504	24.365799	-4.947148	0.000000	2.155459	1.115682	15.510289	4.648271	0.081128	16.407431	-15.406142	0.000000	0.026174	0.321677	0.354819	0.048609	0.427830	0.376995	0.043002	0.782125	0.376995	0.029915	0.782125	0.310467	0.024306	0.655963	0.288290	0.014956	0.498277	0.266114	0.186962	3.638873	1.973396	0.000000	0.000000	28.050540	4.391514	12.168379	9.859126	-13.326558	115.056138	10.828877	4.049006	-1.634587	-10.722505	11.616615	-6.377686	148.616945	6.680419	3.348627	-8.164835	-7.967246
0.083333	-1.147396	-4.455022	88.506329	0.142067	0.832894	0.470945	1.003195	-0.967581	6.950150	3.093144	0.053986	24.435297	-4.899144	0.000000	2.191620	1.207071	15.759960	4.633136	0.080863	16.291322	-15.429794	0.000000	0.033152	0.328350	0.346750	0.061567	0.436705	0.368422	0.054466	0.798350	0.368422	0.037890	0.798350	0.303406	0.030785	0.669571	0.281734	0.018943	0.508614	0.260062	0.236804	3.714361	1.928519	0.000000	0.000000	28.066572	4.362301	12.656252	9.682853	-13.285600	118.352327	9.928969	3.786350	-1.939268	-10.515499	11.618375	-6.175877	150.773880	6.236330	3.217264	-8.382871	-8.002675
0.100000	-1.126124	-4.491503	88.482418	0.141628	0.832872	0.470819	1.148116	-0.967510	6.785396	3.261318	0.056921	24.493231	-4.879222	0.000000	2.208072	1.221622	15.966620	4.637404	0.080938	16.243723	-15.500537	0.000000	0.037831	0.343481	0.356866	0.070256	0.456830	0.379170	0.062153	0.835141	0.379170	0.043237	0.835141	0.312258	0.035130	0.700427	0.289953	0.021617	0.532053	0.267649	0.270224	3.885530	1.984780	0.000000	0.000000	28.078058	4.197798	12.922098	9.405941	-13.281599	121.891530	8.968538	3.515792	-2.397529	-10.386380	11.652908	-5.981022	152.000883	5.951263	3.122809	-8.532460	-8.091860
0.116667	-1.040677	-4.506211	88.458054	0.141185	0.832909	0.470688	1.309426	-0.895470	6.596212	3.496046	0.061018	24.537530	-4.888089	0.000000	2.209130	1.170077	16.132614	4.658296	0.081303	16.252880	-15.607100	0.000000	0.040527	0.365702	0.381695	0.075263	0.486383	0.405551	0.066582	0.889167	0.405551	0.046319	0.889167	0.333983	0.037634	0.745739	0.310127	0.023157	0.566472	0.286271	0.289483	4.136892	2.122871	0.000000	0.000000	28.085707	3.923443	13.003251	9.049465	-13.310945	125.568334	7.975803	3.243863	-2.980444	-10.329305	11.713929	-5.793506	152.456599	5.797398	3.060417	-8.624039	-8.224799
0.133333	-0.902092	-4.503791	88.434722	0.140743	0.832997	0.470558	1.482594	-0.763288	6.393764	3.780590	0.065984	24.566126	-4.926450	0.000000	2.199110	1.063175	16.260285	4.693029	0.081909	16.307037	-15.738210	0.000000	0.041558	0.393642	0.417765	0.077177	0.523543	0.443875	0.068275	0.957100	0.443875	0.047496	0.957100	0.365544	0.038590	0.802714	0.339434	0.023746	0.609751	0.313324	0.296842	4.452954	2.323483	0.000000	0.000000	28.090228	3.564677	12.937050	8.634496	-13.370027	129.277324	6.978982	2.977097	-3.659088	-10.338428	11.795156	-5.613711	152.299671	5.746914	3.025242	-8.668044	-8.391489
0.150000	-0.721406	-4.488891	88.413909	0.140307	0.833129	0.470431	1.663088	-0.582787	6.189218	4.098213	0.071527	24.576947	-4.995011	0.000000	2.182329	0.911655	16.351977	4.738825	0.082708	16.394440	-15.882597	0.000000	0.041239	0.425932	0.461605	0.076585	0.566489	0.490455	0.067751	1.035611	0.490455	0.047132	1.035611	0.403904	0.038294	0.868560	0.375054	0.023564	0.659769	0.346204	0.294565	4.818227	2.567308	0.000000	0.000000	28.092330	3.146939	12.760831	8.182109	-13.455235	132.913086	6.006297	2.722024	-4.404537	-10.407904	11.890305	-5.442023	151.688745	5.771991	3.012439	-8.674913	-8.581927
0.166667	-0.509656	-4.466156	88.397101	0.139883	0.833297	0.470313	1.846375	-0.365795	5.993741	4.432177	0.077356	24.567925	-5.094478	0.000000	2.163102	0.726258	16.410036	4.792902	0.083652	16.503332	-16.028987	0.000000	0.039888	0.461203	0.509743	0.074075	0.613400	0.541602	0.065531	1.121369	0.541602	0.045587	1.121369	0.446025	0.037040	0.940485	0.414166	0.022792	0.714403	0.382307	0.284913	5.217220	2.835036	0.000000	0.000000	28.092723	2.695669	12.511930	7.713377	-13.562960	136.370206	5.085966	2.485178	-5.187864	-10.531889	11.993093	-5.278825	150.782466	5.844809	3.017161	-8.655081	-8.786109
